<svg height="481pt" viewBox="0 0 481.60816 481" width="481pt" xmlns="http://www.w3.org/2000/svg"><g fill="#57b7eb"><path d="m216.28125 448.574219c0 13.253906-10.746094 24-24 24s-24-10.746094-24-24c0-13.28125 24-48 24-48s24 34.71875 24 48zm0 0"/><path d="m368.28125 400.574219c0 13.253906-10.746094 24-24 24s-24-10.746094-24-24c0-13.28125 24-48 24-48s24 34.71875 24 48zm0 0"/><path d="m144.28125 344.574219c0 13.253906-10.746094 24-24 24s-24-10.746094-24-24c0-13.28125 24-48 24-48s24 34.71875 24 48zm0 0"/><path d="m72.28125 408.574219c0 13.253906-10.746094 24-24 24s-24-10.746094-24-24c0-13.28125 24-48 24-48s24 34.71875 24 48zm0 0"/><path d="m448.28125 336.574219c0 13.253906-10.746094 24-24 24s-24-10.746094-24-24c0-13.28125 24-48 24-48s24 34.71875 24 48zm0 0"/><path d="m280.28125 344.574219c0 13.253906-10.746094 24-24 24s-24-10.746094-24-24c0-13.28125 24-48 24-48s24 34.71875 24 48zm0 0"/><path d="m368.28125 56.574219c-3.90625-.003907-7.804688.238281-11.679688.71875-29.363281-37.097657-76.796874-54.976563-123.339843-46.484375-46.546875 8.492187-84.609375 41.964844-98.980469 87.042968-30.050781 5.0625-55 26.003907-65.199219 54.722657-1.601562 0-3.203125 0-4.800781 0-24.972656-.050781-46.957031 16.4375-53.902344 40.421875-6.945312 23.984375 2.828125 49.671875 23.960938 62.972656 21.132812 13.300781 48.519531 11 67.140625-5.636719 28.695312 19.269531 66.273437 18.949219 94.640625-.800781 37.234375 19.878906 81.886718 20.058594 119.28125.480469 37.75 22.402343 85.5 18.6875 119.332031-9.28125s46.460937-74.167969 31.5625-115.457031c-14.898437-41.292969-54.121094-68.78125-98.015625-68.699219zm0 0"/></g><path d="m400.28125 216.574219c-18.617188.003906-36.890625-5.027344-52.878906-14.5625-37.394532 19.578125-82.046875 19.398437-119.28125-.480469-28.367188 19.75-65.945313 20.070312-94.640625.800781-16.46875 14.636719-39.992188 18.257813-60.097657 9.246094-20.109374-9.007813-33.0625-28.972656-33.101562-51.003906 0-.882813 0-1.761719 0-2.640625-19.984375 9.253906-32.6875 29.363281-32.464844 51.382812.226563 22.023438 13.335938 41.867188 33.503906 50.714844 20.167969 8.84375 43.648438 5.050781 60-9.699219 28.695313 19.269531 66.273438 18.949219 94.640626-.800781 37.234374 19.878906 81.886718 20.058594 119.28125.480469 27.285156 16.105469 60.425781 18.890625 90.019531 7.566406s52.410156-35.519531 61.980469-65.726563c-18.679688 15.929688-42.414063 24.695313-66.960938 24.722657zm0 0" fill="#4891d3"/><path d="m200.28125 456.574219c-13.253906 0-24-10.746094-24-24 .332031-3.816407 1.308594-7.550781 2.878906-11.042969-5.410156 8.191406-9.109375 17.386719-10.878906 27.042969-.53125 13.253906 9.785156 24.429687 23.039062 24.957031 13.253907.53125 24.429688-9.785156 24.960938-23.039062-4.40625 3.925781-10.101562 6.089843-16 6.082031zm0 0" fill="#4891d3"/><path d="m352.28125 408.574219c-13.253906 0-24-10.746094-24-24 .332031-3.816407 1.308594-7.550781 2.878906-11.042969-5.410156 8.191406-9.109375 17.386719-10.878906 27.042969-.53125 13.253906 9.785156 24.429687 23.039062 24.957031 13.253907.53125 24.429688-9.785156 24.960938-23.039062-4.40625 3.925781-10.101562 6.089843-16 6.082031zm0 0" fill="#4891d3"/><path d="m128.28125 352.574219c-13.253906 0-24-10.746094-24-24 .332031-3.816407 1.308594-7.550781 2.878906-11.042969-5.410156 8.191406-9.109375 17.386719-10.878906 27.042969-.53125 13.253906 9.785156 24.429687 23.039062 24.957031 13.253907.53125 24.429688-9.785156 24.960938-23.039062-4.40625 3.925781-10.101562 6.089843-16 6.082031zm0 0" fill="#4891d3"/><path d="m56.28125 416.574219c-13.253906 0-24-10.746094-24-24 .332031-3.816407 1.308594-7.550781 2.878906-11.042969-5.410156 8.191406-9.109375 17.386719-10.878906 27.042969-.53125 13.253906 9.785156 24.429687 23.039062 24.957031 13.253907.53125 24.429688-9.785156 24.960938-23.039062-4.40625 3.925781-10.101562 6.089843-16 6.082031zm0 0" fill="#4891d3"/><path d="m432.28125 344.574219c-13.253906 0-24-10.746094-24-24 .332031-3.816407 1.308594-7.550781 2.878906-11.042969-5.410156 8.191406-9.109375 17.386719-10.878906 27.042969-.53125 13.253906 9.785156 24.429687 23.039062 24.957031 13.253907.53125 24.429688-9.785156 24.960938-23.039062-4.40625 3.925781-10.101562 6.089843-16 6.082031zm0 0" fill="#4891d3"/><path d="m264.28125 352.574219c-13.253906 0-24-10.746094-24-24 .332031-3.816407 1.308594-7.550781 2.878906-11.042969-5.410156 8.191406-9.109375 17.386719-10.878906 27.042969-.53125 13.253906 9.785156 24.429687 23.039062 24.957031 13.253907.53125 24.429688-9.785156 24.960938-23.039062-4.40625 3.925781-10.101562 6.089843-16 6.082031zm0 0" fill="#4891d3"/><path d="m64.28125 272.574219c4.417969 0 8-3.582031 8-8s-3.582031-8-8-8c-26.511719 0-48-21.492188-48-48 0-26.511719 21.488281-48 48-48 1.386719-.082031 2.773438-.082031 4.160156 0 3.5625.195312 6.828125-1.988281 8-5.363281 9.175782-26.082032 31.777344-45.132813 59.039063-49.757813 2.929687-.511719 5.332031-2.609375 6.238281-5.441406 13.492188-42.320313 49.253906-73.726563 92.964844-81.636719 43.707031-7.910156 88.210937 8.96875 115.675781 43.878906 1.710937 2.140625 4.398437 3.257813 7.121094 2.957032 3.585937-.394532 7.191406-.609376 10.800781-.636719 53.019531 0 96 42.980469 96 96s-42.980469 96-96 96c-12.355469-.023438-24.585938-2.46875-36-7.203125 7.1875-4.945313 13.882812-10.574219 20-16.796875 2.71875-3.175781 2.535156-7.90625-.421875-10.863281-2.953125-2.953126-7.683594-3.136719-10.859375-.417969-37.125 37.226562-94.164062 45.949219-140.71875 21.519531-10.558594-5.625-20.234375-12.765625-28.71875-21.199219-3.148438-2.222656-7.429688-1.886719-10.191406.796875-2.761719 2.683594-3.222656 6.953125-1.089844 10.164063 6.144531 6.152343 12.871094 11.695312 20.078125 16.558593-24.0625 11.023438-52.101563 8.910157-74.238281-5.601562-3.667969-2.472656-8.644532-1.503906-11.121094 2.160156-2.472656 3.667969-1.507812 8.648438 2.160156 11.121094 29.988282 20.140625 69 20.828125 99.679688 1.761719 37.417968 18.238281 81.144531 18.238281 118.5625 0 41.121094 22.746093 92.074218 17.398437 127.578125-13.390625 35.507812-30.785156 48.015625-80.464844 31.324219-124.398438-16.691407-43.929687-59.03125-72.769531-106.023438-72.210937-2.640625 0-5.359375 0-8 0-31.394531-37.1875-80.261719-54.765625-128.148438-46.09375-47.882812 8.667969-87.488281 42.261719-103.851562 88.09375-29 6.472656-53.0625 26.601562-64.5625 54-35.34375.152343-63.871094 28.933593-63.71875 64.277343.15625 35.347657 28.933594 63.875 64.28125 63.722657zm0 0" fill="#39519d"/><path d="m185.71875 396.011719c-4.238281 6.160156-25.4375 37.601562-25.4375 52.5625 0 17.671875 14.328125 32 32 32s32-14.328125 32-32c0-14.960938-21.199219-46.402344-25.441406-52.5625-1.496094-2.144531-3.945313-3.421875-6.558594-3.421875s-5.0625 1.277344-6.5625 3.421875zm6.5625 68.5625c-8.835938 0-16-7.164063-16-16 3.34375-11.996094 8.757812-23.3125 16-33.441407 7.253906 10.121094 12.671875 21.441407 16 33.441407 0 8.835937-7.164062 16-16 16zm0 0" fill="#39519d"/><path d="m337.71875 348.011719c-4.238281 6.160156-25.4375 37.601562-25.4375 52.5625 0 17.671875 14.328125 32 32 32s32-14.328125 32-32c0-14.960938-21.199219-46.402344-25.441406-52.5625-1.496094-2.144531-3.945313-3.421875-6.558594-3.421875s-5.0625 1.277344-6.5625 3.421875zm6.5625 68.5625c-8.835938 0-16-7.164063-16-16 3.34375-11.996094 8.757812-23.3125 16-33.441407 7.253906 10.121094 12.671875 21.441407 16 33.441407 0 8.835937-7.164062 16-16 16zm0 0" fill="#39519d"/><path d="m113.71875 292.011719c-4.238281 6.160156-25.4375 37.601562-25.4375 52.5625 0 17.671875 14.328125 32 32 32s32-14.328125 32-32c0-14.960938-21.199219-46.402344-25.441406-52.5625-1.496094-2.144531-3.945313-3.421875-6.558594-3.421875s-5.0625 1.277344-6.5625 3.421875zm6.5625 68.5625c-8.835938 0-16-7.164063-16-16 3.34375-11.996094 8.757812-23.3125 16-33.441407 7.253906 10.121094 12.671875 21.441407 16 33.441407 0 8.835937-7.164062 16-16 16zm0 0" fill="#39519d"/><path d="m72.28125 400.574219c-4.417969 0-8 3.582031-8 8 0 8.835937-7.164062 16-16 16s-16-7.164063-16-16c0-6.640625 11.757812-27.761719 22.558594-43.441407 1.8125-2.335937 2.1875-5.484374.976562-8.179687-1.214844-2.699219-3.816406-4.507813-6.765625-4.703125-2.953125-.199219-5.769531 1.25-7.332031 3.761719-4.238281 6.160156-25.4375 37.601562-25.4375 52.5625 0 17.671875 14.328125 32 32 32s32-14.328125 32-32c0-4.417969-3.582031-8-8-8zm0 0" fill="#39519d"/><path d="m417.71875 284.011719c-4.238281 6.160156-25.4375 37.601562-25.4375 52.5625 0 17.671875 14.328125 32 32 32s32-14.328125 32-32c0-14.960938-21.199219-46.402344-25.441406-52.5625-1.496094-2.144531-3.945313-3.421875-6.558594-3.421875s-5.0625 1.277344-6.5625 3.421875zm6.5625 68.5625c-8.835938 0-16-7.164063-16-16 3.34375-11.996094 8.757812-23.3125 16-33.441407 7.253906 10.121094 12.671875 21.441407 16 33.441407 0 8.835937-7.164062 16-16 16zm0 0" fill="#39519d"/><path d="m280.28125 336.574219c-4.417969 0-8 3.582031-8 8 0 8.835937-7.164062 16-16 16s-16-7.164063-16-16c0-6.640625 11.757812-27.761719 22.558594-43.441407 1.8125-2.335937 2.1875-5.484374.976562-8.179687-1.214844-2.699219-3.816406-4.507813-6.765625-4.703125-2.953125-.199219-5.769531 1.25-7.332031 3.761719-4.238281 6.160156-25.4375 37.601562-25.4375 52.5625 0 17.671875 14.328125 32 32 32s32-14.328125 32-32c0-4.417969-3.582031-8-8-8zm0 0" fill="#39519d"/></svg>