<svg height="512pt" viewBox="0 -21 512.00039 512" width="512pt" xmlns="http://www.w3.org/2000/svg"><path d="m426.375 128.632812c-15.914062-28.324218-49.609375-41.472656-80.503906-31.421874-14.574219-47.214844-64.667969-73.671876-111.882813-59.09375-6.589843 2.035156-12.921875 4.824218-18.871093 8.3125-45.078126-48.140626-120.648438-50.621094-168.789063-5.542969s-50.621094 120.644531-5.542969 168.785156c22.589844 24.125 54.164063 37.808594 87.214844 37.796875 1.441406 0 2.839844-.164062 4.265625-.214844 1.417969.101563 2.824219.214844 4.269531.214844h281.597656c32.988282-.226562 59.550782-27.152344 59.324219-60.144531-.203125-29.492188-21.898437-54.421875-51.082031-58.691407zm0 0" fill="#aedee2"/><path d="m349.753906 128c-4.558594.003906-8.316406-3.578125-8.53125-8.132812-2.128906-44.71875-40.109375-79.25-84.832031-77.117188-23.457031 1.113281-45.28125 12.351562-59.816406 30.796875-3.007813 3.628906-8.390625 4.128906-12.015625 1.121094-3.5-2.902344-4.109375-8.042969-1.382813-11.683594 33.550781-42.566406 95.253907-49.875 137.816407-16.328125 22.328124 17.597656 35.929687 44.011719 37.28125 72.410156.226562 4.703125-3.402344 8.703125-8.109376 8.933594zm0 0" fill="#a6d4d8"/><path d="m503.464844 315.734375c-17.847656.394531-35.601563-2.664063-52.289063-9.003906-14.894531-5.699219-30.753906-8.4375-46.695312-8.0625-15.949219-.378907-31.820313 2.359375-46.71875 8.0625-4.542969 1.570312-9.082031 3.132812-14.175781 4.496093-4.550782 1.226563-9.234376-1.46875-10.460938-6.023437-1.226562-4.550781 1.472656-9.234375 6.023438-10.460937 4.695312-1.253907 8.867187-2.707032 13.046874-4.140626 16.6875-6.339843 34.441407-9.398437 52.285157-9 17.847656-.398437 35.605469 2.660157 52.292969 9 14.890624 5.699219 30.753906 8.4375 46.695312 8.066407 4.710938 0 8.53125 3.820312 8.53125 8.53125 0 4.714843-3.820312 8.535156-8.535156 8.535156zm0 0" fill="#eaeae8"/><path d="m305.425781 315.734375c-17.835937.394531-35.582031-2.660156-52.257812-9.003906-14.882813-5.699219-30.730469-8.4375-46.660157-8.0625-15.945312-.378907-31.808593 2.359375-46.703124 8.0625-7.023438 2.578125-14.21875 4.660156-21.53125 6.230469-4.636719.832031-9.074219-2.257813-9.902344-6.894532-.804688-4.480468 2.050781-8.804687 6.488281-9.824218 6.578125-1.433594 13.046875-3.316407 19.363281-5.640626 16.683594-6.34375 34.4375-9.398437 52.285156-9 17.839844-.398437 35.585938 2.65625 52.265626 9 14.878906 5.699219 30.722656 8.4375 46.652343 8.066407 4.710938 0 8.53125 3.820312 8.53125 8.53125 0 4.714843-3.820312 8.535156-8.53125 8.535156zm0 0" fill="#dbdbdb"/><path d="m102.398438 315.664062h-.21875c-16.050782-.1875-31.9375-3.210937-46.933594-8.933593-14.898438-5.703125-30.765625-8.445313-46.710938-8.0625-4.714844 0-8.535156-3.820313-8.535156-8.535157 0-4.710937 3.820312-8.53125 8.535156-8.53125 17.835938-.398437 35.578125 2.660157 52.257813 9 13.351562 5.128907 27.507812 7.839844 41.8125 7.996094 4.710937.058594 8.488281 3.925782 8.429687 8.636719-.054687 4.710937-3.921875 8.488281-8.636718 8.429687zm0 0" fill="#ebebeb"/><path d="m503.464844 366.933594c-17.847656.394531-35.609375-2.660156-52.300782-9.003906-3.214843-1.109376-6.425781-2.207032-9.871093-3.25-4.488281-1.441407-6.953125-6.25-5.511719-10.734376 1.398438-4.355468 5.984375-6.832031 10.390625-5.617187 3.6875 1.101563 7.117187 2.289063 10.558594 3.472656 14.90625 5.707031 30.78125 8.445313 46.734375 8.066407 4.714844 0 8.535156 3.820312 8.535156 8.53125 0 4.714843-3.820312 8.535156-8.535156 8.535156zm0 0" fill="#dbdbdb"/><path d="m305.425781 366.933594c-17.84375.394531-35.59375-2.660156-52.277343-9.003906-5.3125-1.929688-10.722657-3.582032-16.210938-4.949219-4.625-.914063-7.628906-5.40625-6.714844-10.027344.917969-4.625 5.40625-7.628906 10.03125-6.714844.203125.042969.40625.089844.609375.144531 6.03125 1.484376 11.980469 3.296876 17.816407 5.421876 14.90625 5.707031 30.789062 8.445312 46.746093 8.0625 15.953125.378906 31.824219-2.359376 46.726563-8.0625 16.699218-6.347657 34.46875-9.40625 52.328125-9.003907 1.851562 0 3.636719 0 5.367187.066407 4.699219.136718 8.40625 4.046874 8.285156 8.75-.03125 4.628906-3.816406 8.359374-8.449218 8.324218-.097656 0-.195313 0-.296875-.007812-1.585938-.066406-3.199219-.066406-4.90625-.066406-15.953125-.378907-31.824219 2.359374-46.726563 8.0625-16.703125 6.347656-34.46875 9.40625-52.328125 9.003906zm0 0" fill="#ebebeb"/><path d="m107.519531 366.933594c-10.917969.144531-21.820312-.90625-32.511719-3.140625-4.628906-.890625-7.65625-5.363281-6.765624-9.992188.890624-4.628906 5.363281-7.65625 9.992187-6.765625.144531.027344.285156.058594.425781.09375 9.492188 1.957032 19.167969 2.875 28.859375 2.738282 15.945313.378906 31.808594-2.359376 46.703125-8.0625 16.683594-6.34375 34.4375-9.402344 52.285156-9.003907 4.710938 0 8.53125 3.820313 8.53125 8.53125 0 4.714844-3.820312 8.535157-8.53125 8.535157-15.945312-.378907-31.808593 2.359374-46.703124 8.0625-16.6875 6.34375-34.4375 9.402343-52.285157 9.003906zm0 0" fill="#eaeae8"/><path d="m42.667969 353.621094c-.707031.003906-1.410157-.082032-2.09375-.253906-10.492188-2.503907-21.253907-3.679688-32.039063-3.5-4.714844 0-8.535156-3.820313-8.535156-8.535157 0-4.710937 3.820312-8.53125 8.535156-8.53125 12.191406-.191406 24.359375 1.160157 36.214844 4.019531 4.566406 1.164063 7.324219 5.808594 6.160156 10.375-.960937 3.773438-4.351562 6.414063-8.242187 6.425782zm0 0" fill="#dbdbdb"/><path d="m503.464844 418.132812c-17.847656.394532-35.601563-2.660156-52.289063-9.003906-14.894531-5.699218-30.753906-8.4375-46.695312-8.0625-15.949219-.378906-31.820313 2.359375-46.71875 8.0625-4.542969 1.570313-9.082031 3.132813-14.175781 4.5-4.550782 1.222656-9.234376-1.472656-10.460938-6.027344-1.226562-4.550781 1.472656-9.234374 6.023438-10.460937 4.695312-1.253906 8.867187-2.703125 13.046874-4.136719 16.6875-6.34375 34.441407-9.398437 52.285157-9.003906 17.847656-.398438 35.605469 2.660156 52.292969 9.003906 14.890624 5.699219 30.753906 8.4375 46.695312 8.0625 4.710938 0 8.53125 3.820313 8.53125 8.535156 0 4.710938-3.820312 8.53125-8.535156 8.53125zm0 0" fill="#eaeae8"/><path d="m305.425781 418.132812c-17.835937.398438-35.582031-2.660156-52.257812-9.003906-14.882813-5.695312-30.730469-8.4375-46.660157-8.0625-15.945312-.378906-31.808593 2.363282-46.703124 8.0625-3.996094 1.375-7.988282 2.757813-12.367188 3.996094-4.527344 1.308594-9.257812-1.296875-10.566406-5.824219-1.3125-4.527343 1.296875-9.261719 5.824218-10.570312.027344-.007813.054688-.015625.085938-.023438 4.050781-1.152343 7.753906-2.433593 11.460938-3.703125 16.675781-6.34375 34.425781-9.398437 52.265624-9.003906 17.839844-.398438 35.585938 2.660156 52.265626 9.003906 14.878906 5.695313 30.722656 8.4375 46.652343 8.0625 4.710938 0 8.53125 3.820313 8.53125 8.535156 0 4.710938-3.820312 8.53125-8.53125 8.53125zm0 0" fill="#dbdbdb"/><path d="m110.933594 418.132812c-18.332032.269532-36.5625-2.757812-53.820313-8.941406-15.566406-5.632812-32.027343-8.382812-48.578125-8.125-4.714844 0-8.535156-3.820312-8.535156-8.53125 0-4.714844 3.820312-8.535156 8.535156-8.535156 18.328125-.269531 36.558594 2.761719 53.816406 8.941406 15.570313 5.632813 32.03125 8.386719 48.582032 8.125 4.710937 0 8.53125 3.820313 8.53125 8.535156 0 4.710938-3.820313 8.53125-8.53125 8.53125zm0 0" fill="#eaeae8"/><path d="m503.464844 469.332031c-17.847656.398438-35.609375-2.660156-52.300782-9-10.804687-4.140625-22.152343-6.699219-33.6875-7.597656-4.699218-.347656-8.226562-4.4375-7.878906-9.140625 0-.007812 0-.019531.003906-.03125.316407-4.65625 4.347657-8.171875 9-7.855469.054688.003907.109376.007813.164063.011719 12.984375 1.003906 25.761719 3.859375 37.9375 8.484375 14.914063 5.707031 30.800781 8.445313 46.761719 8.0625 4.714844 0 8.535156 3.820313 8.535156 8.535156 0 4.710938-3.820312 8.53125-8.535156 8.53125zm0 0" fill="#eaeae8"/><path d="m305.425781 469.332031c-11.539062.171875-23.054687-1.019531-34.3125-3.546875-4.589843-1.082031-7.433593-5.675781-6.355469-10.261718 1.082032-4.589844 5.675782-7.433594 10.261719-6.355469 9.980469 2.222656 20.183594 3.261719 30.40625 3.097656 15.953125.378906 31.824219-2.359375 46.726563-8.0625 9.933594-3.738281 20.257812-6.339844 30.773437-7.757813 4.675781-.59375 8.949219 2.71875 9.542969 7.394532.59375 4.679687-2.714844 8.953125-7.394531 9.546875-9.351563 1.277343-18.535157 3.609375-27.367188 6.945312-16.683593 6.339844-34.4375 9.398438-52.28125 9zm0 0" fill="#ebebeb"/><path d="m107.519531 469.332031c-7.808593.050781-15.609375-.449219-23.347656-1.492187-4.675781-.578125-8-4.839844-7.417969-9.515625.578125-4.679688 4.839844-8 9.515625-7.421875.097657.011718.195313.027344.292969.042968 6.945312.929688 13.949219 1.371094 20.957031 1.320313 15.945313.382813 31.808594-2.359375 46.703125-8.0625 16.683594-6.34375 34.4375-9.398437 52.285156-9.003906 11.578126-.171875 23.136719 1.03125 34.429688 3.585937 4.625.914063 7.628906 5.40625 6.714844 10.027344-.917969 4.625-5.40625 7.628906-10.03125 6.714844-.203125-.042969-.40625-.089844-.609375-.144532-10.011719-2.234374-20.25-3.28125-30.503907-3.117187-15.945312-.378906-31.8125 2.363281-46.703124 8.066406-16.6875 6.339844-34.4375 9.398438-52.285157 9zm0 0" fill="#eaeae8"/><path d="m51.199219 458.496094c-.886719 0-1.769531-.136719-2.617188-.402344-12.921875-4.210938-26.464843-6.183594-40.046875-5.828125-4.714844 0-8.535156-3.820313-8.535156-8.53125 0-4.714844 3.820312-8.535156 8.535156-8.535156 15.359375-.351563 30.671875 1.890625 45.285156 6.640625 4.488282 1.441406 6.953126 6.25 5.511719 10.734375-1.136719 3.53125-4.421875 5.925781-8.132812 5.921875zm0 0" fill="#ebebeb"/><path d="m404.480469 281.601562c-17.847657-.398437-35.597657 2.660157-52.285157 9-4.179687 1.433594-8.351562 2.886719-13.046874 4.140626-4.550782 1.226562-7.25 5.910156-6.023438 10.460937 1.222656 4.554687 5.910156 7.25 10.460938 6.023437 5.121093-1.363281 9.632812-2.925781 14.171874-4.496093 14.902344-5.703125 30.773438-8.441407 46.722657-8.0625 15.953125-.378907 31.824219 2.359375 46.726562 8.0625 16.679688 6.335937 34.421875 9.394531 52.257813 9.003906 4.714844 0 8.535156-3.820313 8.535156-8.535156 0-4.710938-3.820312-8.53125-8.535156-8.53125-15.953125.378906-31.824219-2.363281-46.726563-8.066407-16.675781-6.335937-34.421875-9.394531-52.257812-9zm0 0"/><path d="m305.425781 315.734375c4.710938 0 8.53125-3.820313 8.53125-8.535156 0-4.710938-3.820312-8.53125-8.53125-8.53125-15.941406.378906-31.804687-2.363281-46.695312-8.066407-16.664063-6.335937-34.398438-9.394531-52.222657-9-17.839843-.398437-35.589843 2.660157-52.265624 9-6.320313 2.324219-12.789063 4.207032-19.363282 5.640626-4.59375 1.054687-7.464844 5.632812-6.410156 10.226562 1.019531 4.4375 5.339844 7.292969 9.824219 6.492188 7.3125-1.570313 14.507812-3.652344 21.527343-6.230469 14.890626-5.699219 30.75-8.441407 46.6875-8.0625 15.945313-.378907 31.808594 2.359375 46.703126 8.0625 16.660156 6.335937 34.390624 9.394531 52.214843 9.003906zm0 0"/><path d="m8.535156 298.667969c15.941406-.378907 31.800782 2.359375 46.691406 8.0625 14.996094 5.71875 30.886719 8.746093 46.933594 8.933593h.238282c4.714843.058594 8.582031-3.71875 8.636718-8.429687.058594-4.714844-3.71875-8.578125-8.429687-8.636719-14.304688-.15625-28.460938-2.867187-41.8125-7.996094-16.679688-6.339843-34.421875-9.398437-52.257813-9-4.714844 0-8.535156 3.820313-8.535156 8.53125 0 4.714844 3.820312 8.535157 8.535156 8.535157zm0 0"/><path d="m503.464844 349.867188c-15.953125.378906-31.828125-2.359376-46.734375-8.0625-3.414063-1.1875-6.828125-2.375-10.558594-3.472657-4.542969-1.253906-9.238281 1.414063-10.492187 5.957031-1.21875 4.40625 1.257812 8.992188 5.613281 10.390626 3.414062 1.042968 6.65625 2.140624 9.871093 3.25 16.691407 6.34375 34.453126 9.402343 52.300782 9.003906 4.714844 0 8.535156-3.820313 8.535156-8.53125 0-4.714844-3.820312-8.535156-8.535156-8.535156zm0 0"/><path d="m236.96875 352.980469c5.488281 1.367187 10.902344 3.019531 16.214844 4.949219 16.671875 6.339843 34.410156 9.394531 52.242187 9.003906 17.847657.394531 35.601563-2.660156 52.292969-9.003906 14.910156-5.707032 30.796875-8.449219 46.761719-8.0625 1.707031 0 3.351562 0 4.941406.066406 4.628906.179687 8.527344-3.425782 8.703125-8.054688.003906-.089844.007812-.175781.007812-.265625.117188-4.710937-3.605468-8.625-8.316406-8.746093h-.003906c-1.730469-.066407-3.515625-.066407-5.332031-.066407-17.847657-.398437-35.605469 2.660157-52.292969 9.003907-14.914062 5.707031-30.796875 8.445312-46.761719 8.0625-15.949219.378906-31.816406-2.363282-46.710937-8.0625-5.839844-2.125-11.785156-3.933594-17.820313-5.421876-4.542969-1.25-9.242187 1.417969-10.492187 5.960938s1.414062 9.242188 5.960937 10.492188c.199219.058593.402344.105468.605469.144531zm0 0"/><path d="m154.1875 341.804688c-14.882812 5.699218-30.734375 8.4375-46.667969 8.0625-9.691406.136718-19.367187-.78125-28.859375-2.738282-4.578125-1.128906-9.199218 1.667969-10.324218 6.246094-1.125 4.574219 1.671874 9.199219 6.246093 10.324219.140625.035156.285157.066406.425781.09375 10.691407 2.234375 21.59375 3.285156 32.511719 3.140625 17.84375.394531 35.59375-2.660156 52.277344-9.003906 14.894531-5.703126 30.761719-8.445313 46.710937-8.0625 4.710938 0 8.53125-3.820313 8.53125-8.535157 0-4.710937-3.820312-8.53125-8.53125-8.53125-17.859374-.402343-35.625 2.65625-52.320312 9.003907zm0 0"/><path d="m8.535156 349.867188c10.785156-.179688 21.554688.996093 32.050782 3.5.679687.171874 1.378906.257812 2.082031.253906 4.710937-.019532 8.515625-3.855469 8.496093-8.566406-.015624-3.890626-2.65625-7.273438-6.421874-8.234376-11.855469-2.859374-24.019532-4.210937-36.207032-4.019531-4.714844 0-8.535156 3.820313-8.535156 8.53125 0 4.714844 3.820312 8.535157 8.535156 8.535157zm0 0"/><path d="m503.464844 401.066406c-15.949219.378906-31.824219-2.359375-46.726563-8.0625-16.675781-6.339844-34.421875-9.394531-52.257812-9.003906-17.84375-.394531-35.597657 2.660156-52.285157 9.003906-4.179687 1.433594-8.351562 2.882813-13.046874 4.136719-4.550782 1.226563-7.25 5.910156-6.023438 10.464844 1.226562 4.550781 5.910156 7.246093 10.460938 6.023437 5.121093-1.367187 9.632812-2.925781 14.175781-4.496094 14.898437-5.707031 30.769531-8.445312 46.71875-8.066406 15.953125-.378906 31.824219 2.359375 46.726562 8.066406 16.679688 6.335938 34.421875 9.390626 52.257813 9 4.714844 0 8.535156-3.820312 8.535156-8.53125 0-4.714843-3.820312-8.535156-8.535156-8.535156zm0 0"/><path d="m313.957031 409.601562c0-4.714843-3.820312-8.535156-8.53125-8.535156-15.941406.378906-31.804687-2.359375-46.695312-8.0625-16.664063-6.339844-34.398438-9.394531-52.222657-9.003906-17.839843-.394531-35.589843 2.660156-52.265624 9.003906-3.707032 1.269532-7.410157 2.558594-11.460938 3.703125-4.542969 1.261719-7.199219 5.96875-5.9375 10.507813 1.265625 4.539062 5.96875 7.195312 10.511719 5.933594.027343-.007813.054687-.015626.085937-.023438 4.375-1.238281 8.367188-2.621094 12.363282-3.996094 14.894531-5.699218 30.757812-8.441406 46.703124-8.0625 15.945313-.378906 31.808594 2.359375 46.703126 8.0625 16.660156 6.339844 34.390624 9.394532 52.214843 9.003906 4.710938 0 8.53125-3.820312 8.53125-8.53125zm0 0"/><path d="m8.535156 401.066406c16.550782-.257812 33.011719 2.492188 48.578125 8.125 17.257813 6.183594 35.488281 9.210938 53.820313 8.941406 4.710937 0 8.53125-3.820312 8.53125-8.53125 0-4.714843-3.820313-8.535156-8.53125-8.535156-16.550782.261719-33.011719-2.492187-48.582032-8.125-17.257812-6.179687-35.488281-9.210937-53.816406-8.941406-4.714844 0-8.535156 3.820312-8.535156 8.535156 0 4.710938 3.820312 8.53125 8.535156 8.53125zm0 0"/><path d="m503.464844 452.265625c-15.953125.378906-31.828125-2.359375-46.734375-8.0625-12.175781-4.625-24.953125-7.480469-37.941407-8.480469-4.644531-.421875-8.753906 3.003906-9.171874 7.648438-.007813.066406-.011719.128906-.015626.191406-.367187 4.699219 3.140626 8.804688 7.839844 9.171875h.007813c11.539062.898437 22.886719 3.457031 33.691406 7.597656 16.699219 6.34375 34.464844 9.398438 52.324219 9 4.714844 0 8.535156-3.820312 8.535156-8.53125 0-4.714843-3.820312-8.535156-8.535156-8.535156zm0 0"/><path d="m382.925781 436.445312c-10.515625 1.417969-20.839843 4.019532-30.773437 7.757813-14.902344 5.703125-30.773438 8.441406-46.726563 8.0625-10.222656.164063-20.425781-.875-30.40625-3.097656-4.585937-1.078125-9.179687 1.765625-10.261719 6.355469-1.078124 4.585937 1.765626 9.179687 6.355469 10.261718 11.257813 2.523438 22.773438 3.714844 34.3125 3.546875 17.84375.398438 35.597657-2.660156 52.28125-9 8.832031-3.339843 18.015625-5.667969 27.367188-6.949219 4.679687-.59375 7.988281-4.867187 7.394531-9.542968-.59375-4.675782-4.867188-7.988282-9.542969-7.394532zm0 0"/><path d="m240.894531 438.785156c-11.28125-2.550781-22.824219-3.753906-34.386719-3.585937-17.84375-.394531-35.59375 2.664062-52.277343 9.003906-14.894531 5.707031-30.761719 8.445313-46.710938 8.0625-7.007812.050781-14.011719-.390625-20.957031-1.320313-4.65625-.742187-9.027344 2.429688-9.769531 7.085938-.738281 4.652344 2.433593 9.027344 7.085937 9.765625.097656.015625.195313.03125.292969.042969 7.738281 1.042968 15.539063 1.542968 23.347656 1.492187 17.84375.398438 35.59375-2.660156 52.277344-9 14.894531-5.707031 30.761719-8.445312 46.710937-8.066406 10.253907-.164063 20.496094.882813 30.503907 3.117187 4.546875 1.25 9.242187-1.417968 10.496093-5.960937 1.25-4.542969-1.417968-9.242187-5.960937-10.492187-.199219-.058594-.402344-.105469-.609375-.144532zm0 0"/><path d="m53.820312 441.839844c-14.613281-4.75-29.925781-6.992188-45.285156-6.640625-4.714844 0-8.535156 3.820312-8.535156 8.535156 0 4.710937 3.820312 8.53125 8.535156 8.53125 13.582032-.355469 27.125 1.617187 40.046875 5.828125.847657.269531 1.730469.402344 2.617188.402344 4.714843.003906 8.539062-3.8125 8.542969-8.527344.003906-3.707031-2.390626-6.992188-5.921876-8.128906zm0 0"/><path d="m128 256h290.132812c37.703126-.164062 68.132813-30.859375 67.96875-68.5625-.140624-32.261719-22.84375-60.019531-54.433593-66.554688-16.878907-27.210937-49.140625-40.746093-80.382813-33.722656-20.167968-50.277344-77.269531-74.6875-127.546875-54.523437-2.46875.992187-4.898437 2.082031-7.28125 3.273437-23.65625-23.074218-55.410156-35.9648435-88.457031-35.910156-70.691406 0-128 57.308594-128 128s57.308594 128 128 128zm0-238.933594c27.167969-.070312 53.394531 9.96875 73.574219 28.160156-6.871094 5.101563-13.046875 11.070313-18.371094 17.765626-2.921875 3.699218-2.292969 9.070312 1.40625 11.992187s9.066406 2.289063 11.988281-1.410156c27.71875-35.160157 78.691406-41.195313 113.851563-13.480469 18.4375 14.535156 29.671875 36.347656 30.789062 59.800781.214844 4.554688 3.972657 8.136719 8.535157 8.132813h.410156c4.707031-.222656 8.34375-4.21875 8.121094-8.925782-.277344-5.246093-.972657-10.457031-2.082032-15.59375 25.066406-4.867187 50.410156 6.96875 62.765625 29.3125 1.300781 2.328126 3.621094 3.910157 6.261719 4.269532 27.972656 4.144531 47.285156 30.179687 43.140625 58.152344-3.699219 24.957031-25.027344 43.5-50.257813 43.691406h-290.132812c-61.265625 0-110.933594-49.667969-110.933594-110.933594s49.667969-110.933594 110.933594-110.933594zm0 0"/></svg>