<svg xmlns="http://www.w3.org/2000/svg" x="0px" y="0px"
width="100" height="100"
viewBox="0 0 100 100"
style=" fill:#000000;"><path fill="#f8e55b" d="M75.749,66.464c1.978-2.12,6.959-7.511,8.159-10.334c0.733-1.723,1.248-3.481,1.585-5.248c-5.11,2.991-11.511,3.631-17.379,1.135c-9.851-4.189-14.44-15.57-10.251-25.421c0.979-2.301,2.361-4.302,4.014-5.984c-10.484-0.617-20.695,5.281-25.04,15.5c-1.178,2.77-1.932,8.259-2.103,11.102"></path><path fill="#565fa0" d="M71.561,62.18c-0.732,0-1.438,0.112-2.113,0.304C69.006,56.75,64.486,52.24,58.964,52.24c-3.183,0-6.03,1.505-7.961,3.872c-2.357-5.042-7.246-8.517-12.912-8.517c-7.808,0-14.151,6.586-14.395,14.804c-0.579-0.139-1.179-0.218-1.798-0.218c-4.492,0-8.134,3.862-8.134,8.626c0,4.764,3.642,8.626,8.134,8.626c0.522,0,49.141,0,49.663,0c4.492,0,8.134-3.862,8.134-8.626C79.695,66.042,76.053,62.18,71.561,62.18z"></path><path fill="#1f212b" d="M72.134,80.882H53c-0.552,0-1-0.447-1-1s0.448-1,1-1h19.134c3.949,0,7.162-3.435,7.162-7.655c0-4.222-3.213-7.656-7.162-7.656c-0.604,0-1.225,0.09-1.846,0.268c-0.29,0.08-0.6,0.029-0.846-0.141c-0.246-0.172-0.403-0.445-0.426-0.744c-0.405-5.247-4.588-9.357-9.524-9.357c-2.762,0-5.391,1.282-7.213,3.518c-0.217,0.266-0.556,0.401-0.898,0.36c-0.341-0.042-0.637-0.257-0.783-0.568c-2.298-4.917-6.917-7.971-12.052-7.971c-7.308,0-13.214,6.1-13.446,13.885c-0.009,0.302-0.153,0.582-0.392,0.766c-0.24,0.183-0.548,0.249-0.841,0.178c-4.619-1.116-8.732,2.694-8.732,7.464c0,4.221,3.213,7.655,7.162,7.655H28c0.552,0,1,0.447,1,1s-0.448,1-1,1h-5.703c-5.052,0-9.162-4.331-9.162-9.655c0-5.629,4.601-10.196,10.037-9.609c0.785-8.321,7.342-14.683,15.375-14.683c5.451,0,10.386,2.963,13.188,7.825c2.117-2.025,4.875-3.164,7.758-3.164c5.61,0,10.414,4.34,11.379,10.071c0.423-0.064,0.845-0.097,1.262-0.097c5.052,0,9.162,4.332,9.162,9.656S77.187,80.882,72.134,80.882z"></path><path fill="#1f212b" d="M79.454,64.297c-0.245,0-0.489-0.089-0.682-0.269c-0.404-0.377-0.426-1.01-0.049-1.413c1.948-2.089,3.508-4.493,4.637-7.148c0.406-0.955,0.754-1.95,1.039-2.975c-5.181,2.341-11.011,2.425-16.304,0.173c-5.01-2.13-8.89-6.084-10.926-11.133c-2.036-5.05-1.984-10.589,0.146-15.6c0.706-1.659,1.627-3.208,2.75-4.626c-9.525,0.265-18.167,6.064-21.936,14.926c-1.108,2.605-1.755,5.345-1.923,8.143c-0.033,0.552-0.496,0.971-1.058,0.938c-0.551-0.033-0.971-0.507-0.938-1.058c0.181-3.027,0.88-5.99,2.078-8.807c4.376-10.292,14.841-16.772,26.02-16.106c0.392,0.022,0.733,0.272,0.875,0.639c0.141,0.365,0.055,0.78-0.22,1.06c-1.631,1.662-2.912,3.57-3.807,5.675c-1.921,4.519-1.969,9.515-0.132,14.068s5.336,8.119,9.854,10.041c5.388,2.291,11.396,1.898,16.482-1.078c0.339-0.197,0.762-0.179,1.082,0.046c0.32,0.227,0.479,0.619,0.406,1.005c-0.362,1.898-0.916,3.732-1.646,5.452c-1.221,2.869-2.908,5.47-5.015,7.729C79.988,64.19,79.722,64.297,79.454,64.297z"></path><path fill="#fdf5a9" d="M25.081 39.944L26.266 42.346 28.917 42.732 26.999 44.601 27.452 47.242 25.081 45.995 22.71 47.242 23.163 44.601 21.244 42.732 23.895 42.346z"></path><path fill="#1f212b" d="M22.71,47.741c-0.104,0-0.207-0.032-0.294-0.096c-0.154-0.111-0.231-0.301-0.199-0.489l0.408-2.38l-1.73-1.687c-0.136-0.133-0.185-0.332-0.126-0.513c0.059-0.182,0.215-0.313,0.404-0.341l2.391-0.347l1.069-2.167c0.168-0.34,0.729-0.34,0.896,0l1.069,2.167l2.391,0.347c0.188,0.027,0.345,0.159,0.404,0.341c0.059,0.181,0.01,0.38-0.126,0.513l-1.73,1.687l0.409,2.38c0.032,0.188-0.045,0.378-0.199,0.489c-0.154,0.112-0.358,0.128-0.526,0.038l-2.139-1.124l-2.139,1.124C22.87,47.723,22.79,47.741,22.71,47.741z M22.319,43.081l1.193,1.162c0.118,0.115,0.171,0.28,0.144,0.443l-0.281,1.641l1.475-0.774c0.146-0.076,0.319-0.076,0.465,0l1.475,0.774l-0.282-1.641c-0.028-0.162,0.026-0.328,0.144-0.443l1.193-1.162l-1.648-0.239c-0.163-0.024-0.304-0.126-0.376-0.273l-0.737-1.494l-0.737,1.494c-0.073,0.147-0.213,0.249-0.376,0.273L22.319,43.081z"></path><path fill="#fdf5a9" d="M59.803 59.361L60.988 61.763 63.639 62.148 61.721 64.018 62.174 66.659 59.803 65.412 57.432 66.659 57.884 64.018 55.966 62.148 58.617 61.763z"></path><path fill="#1f212b" d="M62.174 67.158c-.08 0-.16-.019-.232-.058l-2.139-1.124-2.139 1.124c-.167.09-.373.074-.526-.038-.154-.111-.231-.301-.199-.489l.408-2.38-1.73-1.687c-.136-.133-.185-.332-.126-.513.059-.182.215-.313.404-.341l2.391-.347 1.069-2.167c.168-.34.729-.34.896 0l1.069 2.167 2.391.347c.188.027.345.159.404.341.059.181.01.38-.126.513l-1.73 1.687.408 2.38c.032.188-.045.378-.199.489C62.381 67.126 62.277 67.158 62.174 67.158zM59.803 64.912c.08 0 .16.02.232.058l1.475.774-.281-1.641c-.028-.163.026-.328.144-.443l1.193-1.162-1.648-.239c-.163-.024-.304-.126-.376-.273l-.737-1.494-.737 1.494c-.073.147-.213.249-.376.273l-1.648.239 1.193 1.162c.118.115.171.28.144.443l-.281 1.641 1.475-.774C59.643 64.932 59.723 64.912 59.803 64.912zM49.629 28.284c-.176 0-.346-.093-.438-.257-.134-.242-.047-.546.194-.681 1.692-.94 3.485-1.382 5.336-1.3.276.012.49.245.479.521-.012.276-.233.485-.521.479-1.663-.075-3.279.325-4.809 1.175C49.794 28.264 49.711 28.284 49.629 28.284zM40.76 43.918c-.267 0-.489-.211-.499-.48-.02-.504-.019-1.013.003-1.528.209-5.022 2.387-9.614 5.826-12.284.219-.171.533-.13.702.088.169.218.13.532-.088.701-3.209 2.492-5.243 6.805-5.44 11.536-.021.488-.021.972-.003 1.448.011.276-.204.509-.48.52C40.773 43.918 40.767 43.918 40.76 43.918zM40.747 79.502c-2.66 0-4.823-2.164-4.823-4.823 0-2.66 2.164-4.824 4.823-4.824s4.824 2.164 4.824 4.824C45.571 77.338 43.407 79.502 40.747 79.502zM40.747 70.855c-2.108 0-3.823 1.716-3.823 3.824s1.715 3.823 3.823 3.823c2.108 0 3.824-1.715 3.824-3.823S42.855 70.855 40.747 70.855z"></path><path fill="#1f212b" d="M40.747 70.671c-.276 0-.5-.224-.5-.5v-5.513c0-.276.224-.5.5-.5s.5.224.5.5v5.513C41.247 70.447 41.023 70.671 40.747 70.671zM40.747 85.198c-.276 0-.5-.224-.5-.5v-5.513c0-.276.224-.5.5-.5s.5.224.5.5v5.513C41.247 84.975 41.023 85.198 40.747 85.198z"></path><path fill="#1f212b" d="M38.545,84.161c-0.143,0-0.285-0.061-0.383-0.179c-0.178-0.211-0.15-0.526,0.062-0.704l2.076-1.742c0.213-0.179,0.527-0.15,0.704,0.062c0.178,0.211,0.15,0.526-0.062,0.704l-2.076,1.742C38.772,84.123,38.658,84.161,38.545,84.161z"></path><path fill="#1f212b" d="M42.949 84.161c-.113 0-.228-.038-.321-.117l-2.075-1.742c-.212-.178-.239-.493-.062-.704.177-.212.493-.24.704-.062l2.075 1.742c.212.178.239.493.062.704C43.234 84.101 43.092 84.161 42.949 84.161zM40.875 67.558c-.143 0-.285-.061-.383-.179-.178-.211-.15-.526.062-.704l2.075-1.742c.212-.179.528-.149.704.062.178.211.15.526-.062.704l-2.075 1.742C41.103 67.52 40.988 67.558 40.875 67.558z"></path><path fill="#1f212b" d="M40.62 67.558c-.113 0-.227-.038-.321-.117l-2.076-1.742c-.212-.178-.239-.493-.062-.704.177-.211.493-.24.704-.062l2.076 1.742c.212.178.239.493.062.704C40.904 67.497 40.763 67.558 40.62 67.558zM50.767 75.179h-5.512c-.276 0-.5-.224-.5-.5s.224-.5.5-.5h5.512c.276 0 .5.224.5.5S51.043 75.179 50.767 75.179zM36.24 75.179h-5.513c-.276 0-.5-.224-.5-.5s.224-.5.5-.5h5.513c.276 0 .5.224.5.5S36.516 75.179 36.24 75.179z"></path><path fill="#1f212b" d="M33.507,75.052c-0.143,0-0.285-0.061-0.383-0.179l-1.742-2.076c-0.178-0.211-0.15-0.526,0.062-0.704c0.212-0.179,0.528-0.149,0.704,0.062l1.742,2.076c0.178,0.211,0.15,0.526-0.062,0.704C33.734,75.014,33.621,75.052,33.507,75.052z"></path><path fill="#1f212b" d="M31.764 77.381c-.113 0-.228-.038-.321-.117-.212-.178-.239-.493-.062-.704l1.742-2.075c.178-.211.493-.239.704-.062.212.178.239.493.062.704l-1.742 2.075C32.049 77.32 31.907 77.381 31.764 77.381zM50.111 77.381c-.143 0-.285-.061-.383-.179l-1.742-2.075c-.178-.211-.15-.526.062-.704s.527-.149.704.062l1.742 2.075c.178.211.15.526-.062.704C50.338 77.343 50.224 77.381 50.111 77.381z"></path><path fill="#1f212b" d="M48.368 75.052c-.113 0-.227-.038-.321-.117-.211-.178-.239-.493-.062-.704l1.742-2.076c.176-.211.493-.24.704-.062.211.178.239.493.062.704l-1.742 2.076C48.652 74.991 48.511 75.052 48.368 75.052zM47.698 82.129c-.128 0-.256-.049-.354-.146l-3.898-3.897c-.195-.195-.195-.512 0-.707s.512-.195.707 0l3.898 3.897c.195.195.195.512 0 .707C47.954 82.08 47.826 82.129 47.698 82.129zM37.425 71.856c-.128 0-.256-.049-.354-.146l-3.898-3.897c-.195-.195-.195-.512 0-.707s.512-.195.707 0l3.898 3.897c.195.195.195.512 0 .707C37.681 71.808 37.553 71.856 37.425 71.856z"></path><path fill="#1f212b" d="M35.583,69.834c-0.015,0-0.029-0.001-0.044-0.002c-0.275-0.024-0.479-0.267-0.455-0.541l0.235-2.699c0.024-0.276,0.271-0.461,0.542-0.455c0.275,0.024,0.479,0.267,0.455,0.541l-0.235,2.699C36.059,69.638,35.84,69.834,35.583,69.834z"></path><path fill="#1f212b" d="M32.703 70.25c-.256 0-.475-.196-.498-.456-.024-.275.179-.518.455-.542l2.699-.236c.279-.012.518.18.542.454.024.275-.179.518-.455.542l-2.699.236C32.732 70.249 32.718 70.25 32.703 70.25zM45.676 83.222c-.015 0-.029-.001-.044-.002-.275-.024-.479-.267-.455-.542l.236-2.699c.024-.275.277-.461.542-.454.275.024.479.267.455.542l-.236 2.699C46.151 83.025 45.933 83.222 45.676 83.222z"></path><path fill="#1f212b" d="M46.091 80.343c-.257 0-.475-.196-.498-.457-.024-.274.18-.518.455-.541l2.7-.235c.265-.019.518.18.542.455.024.274-.18.518-.455.541l-2.7.235C46.12 80.342 46.105 80.343 46.091 80.343zM43.8 72.126c-.128 0-.256-.049-.354-.146-.195-.195-.195-.512 0-.707l3.898-3.898c.195-.195.512-.195.707 0s.195.512 0 .707l-3.898 3.898C44.056 72.077 43.928 72.126 43.8 72.126zM33.527 82.398c-.128 0-.256-.049-.354-.146-.195-.195-.195-.512 0-.707l3.898-3.898c.195-.195.512-.195.707 0s.195.512 0 .707l-3.898 3.898C33.783 82.35 33.655 82.398 33.527 82.398z"></path><path fill="#1f212b" d="M35.403,80.343c-0.015,0-0.029-0.001-0.044-0.002l-2.699-0.235c-0.275-0.023-0.479-0.267-0.455-0.541c0.024-0.276,0.27-0.462,0.542-0.455l2.699,0.235c0.275,0.023,0.479,0.267,0.455,0.541C35.878,80.147,35.66,80.343,35.403,80.343z"></path><path fill="#1f212b" d="M35.818 83.222c-.257 0-.475-.196-.498-.457l-.235-2.699c-.024-.274.18-.517.455-.541.27-.018.518.18.542.455l.235 2.699c.024.274-.18.517-.455.541C35.847 83.221 35.833 83.222 35.818 83.222zM48.792 70.25c-.015 0-.029-.001-.044-.002l-2.7-.236c-.275-.024-.479-.267-.455-.542.024-.274.27-.467.542-.454l2.7.236c.275.024.479.267.455.542C49.266 70.054 49.048 70.25 48.792 70.25z"></path><path fill="#1f212b" d="M45.911,69.834c-0.256,0-0.475-0.196-0.498-0.456l-0.236-2.699c-0.024-0.275,0.179-0.518,0.455-0.542c0.276-0.005,0.518,0.18,0.542,0.454l0.236,2.699c0.024,0.275-0.179,0.518-0.455,0.542C45.94,69.833,45.926,69.834,45.911,69.834z"></path></svg>