<svg xmlns="http://www.w3.org/2000/svg" x="0px" y="0px"
width="100" height="100"
viewBox="0 0 100 100"
style=" fill:#000000;"><path fill="#f8e55b" d="M77.597,54.226c1.757-1.95,6.183-6.907,7.277-9.478c0.667-1.569,1.146-3.167,1.47-4.769c-4.497,2.792-9.727,2.429-14.787,0.277c-8.494-3.612-12.634-12.761-8.819-21.733c0.891-2.096,2.129-3.927,3.595-5.475c-9.107-0.374-18.09,5.132-22.048,14.439c-1.073,2.523-1.825,7.495-2.023,10.065"></path><path fill="#565fa0" d="M72.829,50.652c-0.713,0-1.401,0.109-2.058,0.295c-0.431-5.562-4.834-9.936-10.213-9.936c-3.101,0-5.874,1.459-7.755,3.756c-2.296-4.89-7.058-8.26-12.578-8.26c-7.606,0-13.785,6.387-14.023,14.357c-0.564-0.135-1.149-0.212-1.751-0.212c-4.376,0-7.923,3.745-7.923,8.365s3.547,8.365,7.923,8.365c0.509,0,47.87,0,48.379,0c4.376,0,7.923-3.745,7.923-8.365S77.204,50.652,72.829,50.652z"></path><path fill="#fdf5a9" d="M52.365,74.685c-0.147-0.038-0.313-0.024-0.469-0.01c-1.905,0.168-3.81,0.341-5.714,0.513c-0.135,0.012-0.269,0.024-0.404,0.037l-0.047-0.093c0.107-0.11,0.216-0.217,0.32-0.33c1.848-1.987,5.282-5.869,6.584-7.42h-7.184c-0.03,0.033-0.061,0.062-0.089,0.101c-0.598,0.827-8.676,11.556-8.676,11.556c-0.11,0.147-0.193,0.425-0.126,0.563c0.069,0.143,0.335,0.262,0.518,0.267c0.761,0.02,3.32-0.014,3.915-0.013c-0.146,0.2-0.227,0.317-0.313,0.429c-2.201,2.86-6.839,9.284-6.739,9.399c0.098,0.113,17.917-13.646,17.917-13.646s0.483-0.364,0.705-0.568C52.876,75.183,52.778,74.792,52.365,74.685z"></path><path fill="#1f212b" d="M33.767,90.373c-0.167,0-0.252-0.099-0.362-0.226c-0.32-0.37-0.623-0.721,6.159-9.573c-0.943,0.009-2.047,0.015-2.505,0.002c-0.41-0.011-0.932-0.243-1.137-0.666c-0.223-0.46-0.004-1.027,0.197-1.296c0.082-0.108,8.082-10.734,8.669-11.546c0.041-0.056,0.082-0.103,0.125-0.147c0.134-0.142,0.344-0.248,0.539-0.248h7.184c0.275,0,0.526,0.16,0.643,0.409c0.116,0.25,0.077,0.545-0.1,0.756c-1.116,1.328-3.832,4.409-5.762,6.527l4.418-0.396c0.188-0.016,0.444-0.037,0.708,0.029c0,0.001,0.001,0.001,0.001,0.001c0.45,0.117,0.779,0.431,0.88,0.841c0.102,0.409-0.042,0.84-0.383,1.152c-0.237,0.218-0.754,0.61-0.756,0.611c0,0-4.453,3.438-8.917,6.862C35.983,89.128,34.36,90.373,33.767,90.373z M40.967,79.147c0.299-0.001,0.533,0.143,0.657,0.388c0.121,0.237,0.098,0.522-0.059,0.738l-0.122,0.169c-0.08,0.111-0.14,0.194-0.203,0.275c-1.163,1.511-2.946,3.938-4.375,5.93c3.752-2.846,9.969-7.625,14.559-11.169c0.002-0.002,0.03-0.022,0.073-0.056l-5.652,0.508c-0.291,0.041-0.568-0.126-0.699-0.386l-0.047-0.094c-0.137-0.271-0.086-0.598,0.125-0.814l0.308-0.316c1.493-1.605,3.973-4.396,5.562-6.229h-5.292c-1.194,1.602-7.056,9.388-8.321,11.068c0.641,0.009,1.659,0.002,2.452-0.006C40.387,79.15,40.768,79.147,40.967,79.147z"></path><path fill="#1f212b" d="M38.307,67.882H24.45c-4.92,0-8.923-4.218-8.923-9.402c0-5.472,4.484-9.901,9.747-9.36c0.775-8.078,7.147-14.25,14.951-14.25c5.291,0,10.081,2.869,12.809,7.579c2.057-1.956,4.73-3.055,7.524-3.055c5.452,0,10.12,4.209,11.071,9.773c0.402-0.06,0.803-0.09,1.201-0.09c4.92,0,8.923,4.218,8.923,9.402c0,2.229-0.753,4.39-2.121,6.085c-0.348,0.43-0.977,0.497-1.406,0.15s-0.497-0.977-0.15-1.406c1.082-1.341,1.677-3.056,1.677-4.829c0-4.082-3.106-7.402-6.923-7.402c-0.584,0-1.185,0.087-1.784,0.258c-0.291,0.081-0.6,0.029-0.846-0.141c-0.246-0.172-0.403-0.445-0.426-0.744c-0.392-5.078-4.44-9.057-9.216-9.057c-2.671,0-5.216,1.241-6.98,3.404c-0.217,0.267-0.557,0.401-0.898,0.36c-0.341-0.042-0.637-0.257-0.783-0.568c-2.226-4.763-6.698-7.721-11.672-7.721c-7.078,0-12.799,5.908-13.023,13.45c-0.009,0.302-0.153,0.582-0.392,0.766c-0.239,0.183-0.547,0.249-0.841,0.178c-4.439-1.067-8.441,2.604-8.441,7.217c0,4.082,3.106,7.402,6.923,7.402h13.857c0.552,0,1,0.447,1,1S38.859,67.882,38.307,67.882z"></path><path fill="#1f212b" d="M55.807 63.882h-4c-.276 0-.5-.224-.5-.5s.224-.5.5-.5h4c.276 0 .5.224.5.5S56.083 63.882 55.807 63.882zM49.807 63.882h-1c-.276 0-.5-.224-.5-.5s.224-.5.5-.5h1c.276 0 .5.224.5.5S50.083 63.882 49.807 63.882zM46.807 63.882h-23c-.276 0-.5-.224-.5-.5s.224-.5.5-.5h23c.276 0 .5.224.5.5S47.083 63.882 46.807 63.882z"></path><path fill="#fdf5a9" d="M73.517,66.685c-0.147-0.038-0.313-0.024-0.469-0.01c-1.905,0.168-3.81,0.341-5.714,0.513c-0.135,0.012-0.269,0.024-0.404,0.037l-0.047-0.093c0.107-0.11,0.216-0.217,0.32-0.33c1.848-1.987,5.282-5.869,6.584-7.42h-7.184c-0.03,0.033-0.061,0.062-0.089,0.101c-0.598,0.827-8.676,11.556-8.676,11.556c-0.11,0.147-0.193,0.425-0.126,0.563c0.069,0.143,0.335,0.262,0.518,0.267c0.761,0.02,3.32-0.014,3.915-0.013c-0.146,0.2-0.227,0.317-0.313,0.429c-2.201,2.86-6.839,9.284-6.739,9.399c0.098,0.113,17.917-13.646,17.917-13.646s0.483-0.364,0.705-0.568C74.027,67.183,73.93,66.792,73.517,66.685z"></path><path fill="#1f212b" d="M54.917 82.372c-.167.001-.253-.099-.362-.226-.32-.368-.625-.719 6.16-9.572-.943.009-2.047.015-2.505.002-.41-.011-.932-.243-1.137-.666-.223-.46-.005-1.027.197-1.296.082-.108 8.082-10.733 8.669-11.546.018-.025.1-.121.121-.144.134-.143.347-.252.542-.252h7.184c.275 0 .526.16.643.41.116.249.077.544-.1.755-1.12 1.333-3.835 4.413-5.762 6.527l4.418-.396c.188-.016.444-.037.708.029 0 0 0 .001.001.001.45.116.779.431.881.841.102.409-.042.84-.383 1.152-.238.219-.756.611-.756.611l0 0c0 0-4.453 3.438-8.918 6.862C57.136 81.126 55.511 82.372 54.917 82.372zM62.119 71.147c.299.011.533.143.657.389.121.237.098.522-.059.738l-.134.185c-.074.103-.13.182-.19.259-1.163 1.511-2.947 3.938-4.376 5.93 3.752-2.845 9.969-7.625 14.56-11.169.002-.002.03-.022.073-.056l-5.653.508c-.297.044-.569-.126-.7-.388l-.047-.094c-.135-.271-.084-.597.127-.812l.308-.316c1.489-1.602 3.971-4.393 5.562-6.229h-5.292c-1.203 1.612-7.057 9.389-8.322 11.068.641.009 1.66.002 2.452-.006C61.538 71.15 61.918 71.147 62.119 71.147zM81.182 50.695c-.245 0-.489-.089-.682-.269-.404-.377-.426-1.01-.049-1.413 1.647-1.767 2.967-3.801 3.92-6.045.303-.713.568-1.451.792-2.211-4.376 1.884-9.265 1.913-13.712.021-8.883-3.777-13.036-14.076-9.259-22.959.565-1.328 1.29-2.573 2.166-3.723-7.928.343-15.086 5.216-18.231 12.609-.937 2.203-1.483 4.52-1.626 6.885-.033.551-.506.963-1.058.938-.551-.033-.971-.507-.938-1.058.156-2.595.755-5.135 1.781-7.549 3.752-8.82 12.711-14.363 22.303-13.806.392.022.733.272.875.639s.055.78-.22 1.061c-1.376 1.4-2.456 3.011-3.211 4.786-1.621 3.812-1.661 8.025-.112 11.866 1.549 3.841 4.501 6.849 8.312 8.47 4.545 1.932 9.612 1.602 13.903-.91.338-.198.761-.179 1.082.046.32.227.479.619.406 1.005-.31 1.627-.785 3.199-1.412 4.673-1.045 2.459-2.492 4.688-4.298 6.625C81.716 50.589 81.449 50.695 81.182 50.695z"></path><path fill="#1f212b" d="M55.784 19.954c-.176 0-.346-.093-.438-.257-.134-.242-.047-.546.194-.681 1.452-.806 2.994-1.182 4.583-1.116.276.012.491.245.479.521-.012.276-.252.487-.52.479-1.402-.063-2.767.275-4.056.991C55.949 19.934 55.866 19.954 55.784 19.954zM48.231 33.267c-.267 0-.489-.211-.499-.48-.017-.431-.016-.867.002-1.308.179-4.298 2.044-8.229 4.99-10.516.219-.171.533-.13.702.088.169.218.13.532-.088.701-2.716 2.109-4.437 5.761-4.604 9.769-.018.414-.018.823-.002 1.227.011.276-.204.509-.48.52C48.245 33.267 48.238 33.267 48.231 33.267z"></path></svg>